<svg xmlns="http://www.w3.org/2000/svg" width="119" height="101" viewBox="0 0 238 202">
    <g>
        <g>
            <g>
                <path fill="#58c9d5" fill-opacity="0.012" d="M238.996 109.035L15.098 178.618 1.285-.002z"/>
            </g>
            <g>
                <path fill="#58c9d5" fill-opacity="0.039" d="M107.502 22.145l20.04 158.889L-.003 98.748z"/>
            </g>
            <g>
                <path fill="#58c9d5" fill-opacity="0.02" d="M176.447 90.387l-12.456 100.298-70.943-66.688z"/>
            </g>
            <g>
                <path fill="#58c9d5" fill-opacity="0.051" d="M154.555 15.406l30.067 102.68L127.836 17.18z"/>
            </g>
            <g>
                <path fill="#58c9d5" fill-opacity="0.039" d="M212.364 176.776l-63.17 25.219 26.731-52.128z"/>
            </g>
        </g>
        <g>
            <path fill="#58c9d5"
                  d="M100.386 151.274a4.635 4.635 0 0 1-.892 3.954A4.668 4.668 0 0 1 95.818 157H74.876c-1.44 0-2.78-.646-3.675-1.771a4.635 4.635 0 0 1-.888-3.972l2.116-9.927a6.006 6.006 0 0 1 5.871-4.661h3.76c-4.503-1.4-7.78-5.593-7.781-10.535 0-6.083 4.965-11.03 11.069-11.03 6.103 0 11.068 4.947 11.068 11.03 0 4.942-3.278 9.136-7.78 10.535h3.758c2.81 0 5.22 1.903 5.864 4.63zm-20.11-25.14c0 2.787 2.275 5.054 5.072 5.054 2.795 0 5.07-2.267 5.07-5.054 0-2.787-2.275-5.053-5.07-5.053-2.797 0-5.071 2.266-5.071 5.053zm12.131 16.478l-14.107.036-1.803 8.375H94.2zm59.569-48.988v36.804c0 1.38-.752 2.652-1.965 3.318a3.823 3.823 0 0 1-3.861-.11l-8.313-5.22-30.55-.006c-4.951 0-8.98-4.016-8.98-8.952v-11.72h-13.31l-8.33 5.226a3.872 3.872 0 0 1-3.863.113 3.79 3.79 0 0 1-1.967-3.32V72.953c0-4.936 4.03-8.952 8.982-8.952h35.706c4.953 0 8.982 4.016 8.982 8.952v11.72h18.487c4.953 0 8.982 4.016 8.982 8.952zm-44.688-8.953h11.222V72.952c0-1.64-1.34-2.974-2.987-2.975H79.818a2.982 2.982 0 0 0-2.984 2.974v32.842l5.31-3.336a4.535 4.535 0 0 1 2.419-.696h13.743v-8.138c0-4.936 4.03-8.952 8.982-8.952zm8.237 17.091a2.983 2.983 0 0 0 2.985-2.975v-8.138h-11.222a2.982 2.982 0 0 0-2.984 2.975v8.138zm-8.238 20.672h30.963c.857 0 1.693.24 2.417.696l5.312 3.336V93.624a2.983 2.983 0 0 0-2.985-2.975h-18.487v8.138c0 4.937-4.03 8.953-8.983 8.953h-11.22v11.72a2.982 2.982 0 0 0 2.983 2.974z"/>
        </g>
    </g>
</svg>
