<svg xmlns="http://www.w3.org/2000/svg" width="62" height="69.5" viewBox="0 0 124 139">
    <defs>
        <style>
            .cls-1 {
            fill: #f5e3ff;
            fill-rule: evenodd;
            filter: url(#filter);
            }
        </style>
        <filter id="filter" x="1809" y="230" width="124" height="139" filterUnits="userSpaceOnUse">
            <feOffset result="offset" dy="6" in="SourceAlpha"/>
            <feGaussianBlur result="blur" stdDeviation="6.325"/>
            <feFlood result="flood" flood-color="#c348ff" flood-opacity="0.95"/>
            <feComposite result="composite" operator="in" in2="blur"/>
            <feBlend result="blend" in="SourceGraphic"/>
        </filter>
    </defs>
    <path id="lock" class="cls-1"
          d="M1888.92,288.271h-3.41V278.076a15.01,15.01,0,1,0-30.02,0v10.195h-3.4a4.083,4.083,0,0,0-4.08,4.095V318.9a4.082,4.082,0,0,0,4.08,4.094h36.83a4.08,4.08,0,0,0,4.07-4.094V292.366A4.081,4.081,0,0,0,1888.92,288.271Zm-27.76-10.195a9.34,9.34,0,1,1,18.68,0V288.27h-18.68V278.076Zm11.12,29V312.6a1.78,1.78,0,1,1-3.56,0v-5.526A4.59,4.59,0,1,1,1872.28,307.072Z"
          transform="translate(-1809 -230)"/>
</svg>
