<svg xmlns="http://www.w3.org/2000/svg" width="14" height="14" viewBox="0 0 28 28"><defs><linearGradient id="d2d0a" x1="22" x2="5.97" y1="-.01" y2="27.99" gradientUnits="userSpaceOnUse"><stop offset="0" stop-color="#255d77"/><stop offset="1" stop-color="#459a9f"/></linearGradient></defs><g><g><path fill="#3c9392" d="M.258 4.863L13.118.141a2.505 2.505 0 0 1 1.728 0l12.86 4.722c.345.127.345 1.86 0 1.987l-12.86 4.723a2.51 2.51 0 0 1-1.729 0L.257 6.85c-.344-.127-.344-1.86 0-1.987zm27.449 10.122l-12.861 4.721a2.502 2.502 0 0 1-1.728 0L.257 14.986c-.345-.128-.345-1.862 0-1.99l5.21-1.913 6.902 2.536a4.687 4.687 0 0 0 3.225 0l6.902-2.536 5.21 1.914c.346.127.346 1.86 0 1.988zm0 8.135l-12.861 4.72a2.497 2.497 0 0 1-1.728 0L.257 23.12c-.345-.128-.345-1.861 0-1.989l5.214-1.913 6.898 2.532a4.682 4.682 0 0 0 3.225 0l6.899-2.532 5.214 1.913c.345.128.345 1.861 0 1.989z"/><path fill="url(#d2d0a)" d="M.258 4.863L13.118.141a2.505 2.505 0 0 1 1.728 0l12.86 4.722c.345.127.345 1.86 0 1.987l-12.86 4.723a2.51 2.51 0 0 1-1.729 0L.257 6.85c-.344-.127-.344-1.86 0-1.987zm27.449 10.122l-12.861 4.721a2.502 2.502 0 0 1-1.728 0L.257 14.986c-.345-.128-.345-1.862 0-1.99l5.21-1.913 6.902 2.536a4.687 4.687 0 0 0 3.225 0l6.902-2.536 5.21 1.914c.346.127.346 1.86 0 1.988zm0 8.135l-12.861 4.72a2.497 2.497 0 0 1-1.728 0L.257 23.12c-.345-.128-.345-1.861 0-1.989l5.214-1.913 6.898 2.532a4.682 4.682 0 0 0 3.225 0l6.899-2.532 5.214 1.913c.345.128.345 1.861 0 1.989z"/></g></g></svg>